<svg version="1.0" xmlns="http://www.w3.org/2000/svg" width="346.667" height="346.667" viewBox="0 0 260 260"><path d="M116.3 19.5c-6.1 1.2-13.3 3.1-16 4.1-5.9 2.2-19.7 9.4-22.4 11.7-1 .9-2.3 1.7-2.8 1.7s-5.5 4.4-11.2 9.7c-17.9 17.1-27.4 33.9-33 58.8-1.9 8.1-1.9 36 0 44 7.8 34 26.4 58.9 56.1 74.8 13.3 7.1 23.8 10.2 39.9 11.8 34.1 3.5 64.3-6.9 88.3-30.3 9.2-9 10.8-11.3 10.8-15.6 0-3.6-1.5-5.2-22.5-25.3-15.9-15.2-18.6-15.4-33-2.4-5.4 4.9-11.5 8.1-19.8 10.7-5.8 1.7-8.4 2-15.3 1.4-9.6-.7-16.2-3-24.4-8.6-7.3-4.9-11.1-9.5-15.7-18.7-3.1-6.4-3.6-8.4-4.1-16.7-.5-10.7.5-16 4.8-25 5.8-12.1 17.9-21.1 32-24 5.1-1 6.5-1.7 6.5-3.1 0-4.5-17.3-6-27.9-2.5-14.5 4.9-23.6 14.4-29.8 31-3.2 8.6-3.6 26.2-.9 36.9 4.5 18 19.1 34.9 36.7 42.7 6.9 3 18.7 5.4 27.4 5.5h6.5l-4.5 2.1c-9.1 4.1-17.1 5.8-28 5.9-33.7.2-59.5-20.6-66.5-53.6-2.1-9.7-2.4-29.7-.6-37.5 5.5-24.2 17.2-39.7 37.7-50.3 8.1-4.1 16-5.7 28.5-5.7 20.1 0 33.2 5.3 47.1 19.1 7.3 7.3 9.5 10.2 13.3 18 2.5 5.1 5.2 10.1 6.1 11.1 2.6 2.8 8.6 2.4 12.1-.8 9.7-8.8 33.4-33.1 33.9-34.7.3-1 .3-2.9 0-4.2-1-3.8-19.3-21.7-27.8-27.2-8.4-5.5-22.7-11.9-29.8-13.4-22.8-4.7-34.4-5-51.7-1.4zm42.2 16.7c17.3 3.9 32.7 12 43 22.7l3.9 4.1-8.4 8.5c-4.7 4.7-8.8 8.5-9.2 8.5-.3 0-.9-.9-1.3-2-.9-2.7-11-15.8-15.4-19.9-2-1.8-5.4-4.5-7.6-6-2.2-1.4-4.7-3.2-5.5-4-3.2-3.1-21.1-10-30.5-11.7l-4-.8 4-.7c5.2-1 24.6-.2 31 1.3zM205 191.5c0 1.2-8.8 9.1-13.5 12.1-1.6 1-3.2 2.2-3.5 2.6-1.1 1.4-14.7 7.6-21 9.6-11.4 3.5-20 4.5-33 4-6.6-.3-12.5-.9-13.1-1.5-.5-.5 1.8-1.4 6.1-2.1 24.3-4.2 46.7-18.9 58.9-38.6l2.3-3.7 8.4 8.3c4.6 4.5 8.4 8.7 8.4 9.3z"/></svg>